<?xml version="1.0" encoding="UTF-8"?>
<svg id="Layer_2" data-name="Layer 2" xmlns="http://www.w3.org/2000/svg" viewBox="0 0 120.35 120.35">
  <defs>
    <style>
      .cls-1 {
        fill: #fff;
      }
    </style>
  </defs>
  <g id="Layer_1-2" data-name="Layer 1">
    <path class="cls-1" d="m29.65,60.18h28.32c1.22,0,2.21.99,2.21,2.21v55.75c0,1.22-.99,2.21-2.21,2.21H2.21C.99,120.35,0,119.36,0,118.14v-28.32C0,73.46,13.28,60.18,29.65,60.18Z"/>
    <path class="cls-1" d="m0,0h57.96c1.22,0,2.21.99,2.21,2.21v26.99c0,17.09-13.88,30.97-30.97,30.97H2.21c-1.22,0-2.21-.99-2.21-2.21V0h0Z"/>
    <path class="cls-1" d="m60.18,0h60.18v29.2c0,17.09-13.88,30.97-30.97,30.97h0c-16.12,0-29.2-13.09-29.2-29.2V0h0Z"/>
    <path class="cls-1" d="m65.93,60.18h48.67c3.17,0,5.75,2.58,5.75,5.75v48.67c0,3.17-2.58,5.75-5.75,5.75h-24.34c-16.61,0-30.09-13.48-30.09-30.09v-24.34c0-3.17,2.58-5.75,5.75-5.75Z"/>
  </g>
</svg>